<svg width="26" height="26" viewBox="0 0 26 26" fill="none" xmlns="http://www.w3.org/2000/svg">
<path d="M6.50521 9.74996H21.6052L22.1468 7.58329H8.67187V5.41663H23.5344C24.1327 5.41663 24.6177 5.90166 24.6177 6.49996C24.6177 6.58853 24.6069 6.67678 24.5853 6.76271L21.877 17.596C21.7565 18.0783 21.3232 18.4166 20.826 18.4166H5.42187C4.82357 18.4166 4.33854 17.9316 4.33854 17.3333V4.33329H2.17188V2.16663H5.42187C6.02019 2.16663 6.50521 2.65166 6.50521 3.24996V9.74996ZM6.50521 24.9166C5.30859 24.9166 4.33854 23.9466 4.33854 22.75C4.33854 21.5533 5.30859 20.5833 6.50521 20.5833C7.70183 20.5833 8.67187 21.5533 8.67187 22.75C8.67187 23.9466 7.70183 24.9166 6.50521 24.9166ZM19.5052 24.9166C18.3086 24.9166 17.3386 23.9466 17.3386 22.75C17.3386 21.5533 18.3086 20.5833 19.5052 20.5833C20.7019 20.5833 21.6719 21.5533 21.6719 22.75C21.6719 23.9466 20.7019 24.9166 19.5052 24.9166Z" fill="#4F312F"/>
</svg>
