<svg width="113" height="27" viewBox="0 0 113 27" fill="none" xmlns="http://www.w3.org/2000/svg">
<g filter="url(#filter0_d_477_853)">
<path d="M6.58782 21.8926C5.61333 21.8926 4.71893 21.7124 3.90463 21.352C3.09033 20.9916 2.39618 20.4843 1.82216 19.8302C1.24815 19.1761 0.80095 18.3885 0.48057 17.4674C0.16019 16.5463 0 15.5251 0 14.4038C0 13.2824 0.153515 12.2679 0.460546 11.3601C0.780926 10.439 1.22145 9.65812 1.78211 9.01736C2.35613 8.36325 3.03694 7.85599 3.82454 7.49556C4.61214 7.13513 5.47316 6.95492 6.4076 6.95492C7.20855 6.95492 7.9828 7.08173 8.73036 7.33537C9.49126 7.57565 10.1587 7.90271 10.7327 8.31653C11.3201 8.71701 11.7873 9.17088 12.1344 9.67815C12.4948 10.1854 12.675 10.6994 12.675 11.22C12.675 11.7272 12.5215 12.1544 12.2145 12.5015C11.9075 12.8486 11.527 13.0221 11.0731 13.0221C10.686 13.0221 10.3323 12.8886 10.0119 12.6216C9.70485 12.3547 9.41116 12.0209 9.13083 11.6205C8.8505 11.22 8.57684 10.7928 8.30986 10.3389C8.05622 9.87171 7.78924 9.43786 7.50891 9.03739C7.22858 8.63691 6.92822 8.30318 6.60784 8.0362C6.30081 7.76922 5.95373 7.63573 5.5666 7.63573C5.41976 7.63573 5.23287 7.6691 5.00594 7.73584C4.53872 7.89603 4.15827 8.21641 3.86459 8.69698C3.5709 9.1642 3.37067 9.73822 3.26387 10.419C3.15708 11.0865 3.14373 11.8407 3.22382 12.6817C3.31727 13.5094 3.51083 14.3704 3.80451 15.2648C4.31178 16.7999 4.97257 17.9747 5.78687 18.789C6.60116 19.6033 7.48888 20.0104 8.45002 20.0104C8.83715 20.0104 9.22428 19.9437 9.6114 19.8102C10.0119 19.6633 10.3857 19.4698 10.7327 19.2295C11.0932 18.9892 11.4135 18.7155 11.6939 18.4085C11.9742 18.0881 12.1945 17.7611 12.3547 17.4273C12.4348 17.2405 12.5148 17.1136 12.5949 17.0469C12.675 16.9668 12.7618 16.9267 12.8553 16.9267C12.9487 16.9267 13.0021 16.9801 13.0154 17.0869C13.0421 17.1804 13.0021 17.3873 12.8953 17.7077C12.6684 18.3217 12.348 18.8891 11.9342 19.4097C11.5337 19.917 11.0598 20.3575 10.5125 20.7313C9.96515 21.105 9.35777 21.392 8.69031 21.5923C8.0362 21.7925 7.33537 21.8926 6.58782 21.8926Z" fill="#4F312F"/>
<path d="M12.9757 21.6924C12.909 21.6924 12.8756 21.6457 12.8756 21.5522C12.8756 21.4321 12.9357 21.2652 13.0558 21.0516C13.1759 20.8381 13.3028 20.5844 13.4363 20.2907C13.5831 19.9837 13.7099 19.6366 13.8167 19.2495C13.9368 18.849 13.9969 18.4018 13.9969 17.9079V10.9396C13.9969 10.4457 13.9368 10.0052 13.8167 9.61808C13.7099 9.23095 13.5831 8.89055 13.4363 8.59686C13.3028 8.28983 13.1759 8.02952 13.0558 7.81594C12.9357 7.60235 12.8756 7.43549 12.8756 7.31534C12.8756 7.20855 12.909 7.15515 12.9757 7.15515H18.7826C18.8093 7.15515 18.836 7.17518 18.8627 7.21523C18.8894 7.25527 18.9027 7.29532 18.9027 7.33537C18.9027 7.45551 18.8427 7.62238 18.7225 7.83596C18.6024 8.0362 18.4689 8.28983 18.3221 8.59686C18.1752 8.89055 18.0417 9.23095 17.9216 9.61808C17.8014 10.0052 17.7414 10.4457 17.7414 10.9396V14.3237H21.4658V10.9396C21.4658 10.4457 21.4057 10.0052 21.2856 9.61808C21.1788 9.23095 21.052 8.89055 20.9051 8.59686C20.7716 8.28983 20.6448 8.02952 20.5247 7.81594C20.4045 7.60235 20.3444 7.43549 20.3444 7.31534C20.3444 7.20855 20.3778 7.15515 20.4446 7.15515H26.2715C26.2982 7.15515 26.3182 7.17518 26.3316 7.21523C26.3582 7.25527 26.3716 7.29532 26.3716 7.33537C26.3716 7.45551 26.3115 7.62238 26.1914 7.83596C26.0712 8.0362 25.9378 8.28983 25.7909 8.59686C25.6441 8.89055 25.5106 9.23095 25.3904 9.61808C25.2703 10.0052 25.2102 10.4457 25.2102 10.9396V17.9079C25.2102 18.4018 25.2703 18.849 25.3904 19.2495C25.5106 19.6366 25.6441 19.9837 25.7909 20.2907C25.9378 20.5844 26.0712 20.8381 26.1914 21.0516C26.3115 21.2519 26.3716 21.4121 26.3716 21.5322C26.3716 21.639 26.3382 21.6924 26.2715 21.6924H20.4446C20.3778 21.6924 20.3444 21.6457 20.3444 21.5522C20.3444 21.4321 20.4045 21.2652 20.5247 21.0516C20.6448 20.8381 20.7716 20.5844 20.9051 20.2907C21.052 19.9837 21.1788 19.6366 21.2856 19.2495C21.4057 18.849 21.4658 18.4018 21.4658 17.9079V14.9444H17.7414V17.9079C17.7414 18.4018 17.8014 18.849 17.9216 19.2495C18.0417 19.6366 18.1752 19.9837 18.3221 20.2907C18.4689 20.5844 18.6024 20.8381 18.7225 21.0516C18.8427 21.2519 18.9027 21.4121 18.9027 21.5322C18.9027 21.639 18.8627 21.6924 18.7826 21.6924H12.9757Z" fill="#4F312F"/>
<path d="M33.829 21.8926C32.7077 21.8926 31.6865 21.7124 30.7654 21.352C29.8577 20.9916 29.0701 20.4843 28.4026 19.8302C27.7485 19.1627 27.2412 18.3685 26.8808 17.4474C26.5204 16.5263 26.3402 15.5051 26.3402 14.3837C26.3402 13.2757 26.5204 12.2679 26.8808 11.3601C27.2412 10.439 27.7418 9.65145 28.3826 8.99734C29.0367 8.34323 29.8176 7.84264 30.7254 7.49556C31.6465 7.13513 32.6677 6.95492 33.789 6.95492C34.9103 6.95492 35.9249 7.13513 36.8326 7.49556C37.7537 7.85599 38.5413 8.36325 39.1954 9.01736C39.8629 9.65812 40.3768 10.439 40.7372 11.3601C41.0977 12.2812 41.2779 13.3024 41.2779 14.4238C41.2779 15.5318 41.0977 16.5463 40.7372 17.4674C40.3768 18.3885 39.8695 19.1761 39.2154 19.8302C38.5747 20.4843 37.7937 20.9916 36.8727 21.352C35.9649 21.7124 34.9504 21.8926 33.829 21.8926ZM36.0317 20.8914C36.5523 20.7179 36.9728 20.4109 37.2931 19.9704C37.6135 19.5165 37.8338 18.9625 37.9539 18.3084C38.0741 17.6409 38.0874 16.9 37.994 16.0857C37.9139 15.2581 37.7203 14.3837 37.4133 13.4626C37.133 12.6216 36.7992 11.8607 36.4121 11.1799C36.0383 10.4858 35.6312 9.89173 35.1907 9.39781C34.7501 8.9039 34.2829 8.52344 33.789 8.25646C33.3084 7.97613 32.8279 7.83596 32.3473 7.83596C32.0936 7.83596 31.8467 7.87601 31.6064 7.9561C31.0858 8.12964 30.6653 8.4567 30.3449 8.93727C30.0245 9.41784 29.8109 10.0119 29.7041 10.7194C29.5974 11.4135 29.5907 12.1878 29.6841 13.0421C29.7909 13.8965 29.9978 14.7842 30.3049 15.7053C30.5852 16.5329 30.9122 17.2805 31.286 17.948C31.6598 18.6021 32.0603 19.1561 32.4874 19.6099C32.9146 20.0638 33.3618 20.4109 33.829 20.6512C34.2963 20.8915 34.7635 21.0116 35.2307 21.0116C35.511 21.0116 35.778 20.9715 36.0317 20.8914Z" fill="#4F312F"/>
<path d="M49.1112 21.8926C47.9899 21.8926 46.9687 21.7124 46.0476 21.352C45.1399 20.9916 44.3523 20.4843 43.6848 19.8302C43.0307 19.1627 42.5234 18.3685 42.163 17.4474C41.8026 16.5263 41.6223 15.5051 41.6223 14.3837C41.6223 13.2757 41.8026 12.2679 42.163 11.3601C42.5234 10.439 43.024 9.65145 43.6648 8.99734C44.3189 8.34323 45.0998 7.84264 46.0076 7.49556C46.9286 7.13513 47.9499 6.95492 49.0712 6.95492C50.1925 6.95492 51.2071 7.13513 52.1148 7.49556C53.0359 7.85599 53.8235 8.36325 54.4776 9.01736C55.1451 9.65812 55.659 10.439 56.0194 11.3601C56.3799 12.2812 56.5601 13.3024 56.5601 14.4238C56.5601 15.7453 56.3131 16.9267 55.8192 17.968C55.3253 18.9959 54.6378 19.8369 53.7567 20.491C53.9837 20.8114 54.2039 21.1384 54.4175 21.4721C54.6445 21.8059 54.8781 22.0996 55.1184 22.3532C55.3586 22.6202 55.6123 22.8404 55.8793 23.014C56.1596 23.1875 56.4666 23.2743 56.8004 23.2743C57.0673 23.2743 57.2943 23.2209 57.4812 23.1141C57.6681 23.0206 57.8483 22.9138 58.0218 22.7937C58.1953 22.6736 58.3756 22.5601 58.5624 22.4533C58.7627 22.3599 58.9963 22.3131 59.2633 22.3131C59.7305 22.3131 60.1043 22.46 60.3846 22.7537C60.6783 23.0607 60.8251 23.4478 60.8251 23.915C60.8251 24.2621 60.745 24.5758 60.5848 24.8562C60.4247 25.1365 60.2111 25.3768 59.9441 25.577C59.6771 25.7906 59.3701 25.9508 59.023 26.0576C58.6893 26.1777 58.3355 26.2378 57.9617 26.2378C57.2943 26.2378 56.7069 26.0643 56.1996 25.7172C55.7057 25.3834 55.2585 24.9563 54.8581 24.4357C54.4709 23.915 54.1172 23.3477 53.7968 22.7336C53.4898 22.1329 53.1894 21.5656 52.8957 21.0316C51.7877 21.6056 50.5262 21.8926 49.1112 21.8926ZM48.9911 20.6111C48.9911 20.5844 48.9911 20.5577 48.9911 20.531C49.0044 20.5043 49.0111 20.4776 49.0111 20.4509C49.1179 19.8636 49.3582 19.3963 49.732 19.0493C50.1057 18.7022 50.5596 18.5286 51.0936 18.5286C51.454 18.5286 51.7811 18.6087 52.0747 18.7689C52.3818 18.9291 52.6621 19.1427 52.9157 19.4097C53.2361 18.7155 53.3763 17.8545 53.3362 16.8266C53.3095 15.7987 53.096 14.6774 52.6955 13.4626C52.4151 12.6216 52.0814 11.8607 51.6943 11.1799C51.3205 10.4858 50.9134 9.89173 50.4728 9.39781C50.0323 8.9039 49.5651 8.52344 49.0712 8.25646C48.5906 7.97613 48.11 7.83596 47.6295 7.83596C47.3758 7.83596 47.1289 7.87601 46.8886 7.9561C46.368 8.12964 45.9475 8.4567 45.6271 8.93727C45.3067 9.41784 45.0931 10.0119 44.9863 10.7194C44.8795 11.4135 44.8729 12.1878 44.9663 13.0421C45.0731 13.8965 45.28 14.7842 45.5871 15.7053C45.9875 16.9201 46.4814 17.948 47.0688 18.789C47.6695 19.63 48.3103 20.2373 48.9911 20.6111ZM50.4929 21.0316C50.8533 21.0316 51.2004 20.9582 51.5341 20.8114C51.8678 20.6645 52.1548 20.4576 52.3951 20.1906C52.1682 19.8569 51.9346 19.5899 51.6943 19.3897C51.454 19.1894 51.187 19.0893 50.8933 19.0893C50.573 19.0893 50.2926 19.2161 50.0523 19.4698C49.8121 19.7234 49.6786 20.0772 49.6519 20.531C49.6252 20.6912 49.6051 20.8047 49.5918 20.8714C49.9122 20.9782 50.2125 21.0316 50.4929 21.0316Z" fill="#4F312F"/>
<path d="M57.7121 10.9396C57.7121 10.4457 57.652 10.0052 57.5318 9.61808C57.4251 9.23095 57.2982 8.89055 57.1514 8.59686C57.0179 8.28983 56.8911 8.02952 56.7709 7.81594C56.6508 7.60235 56.5907 7.43549 56.5907 7.31534C56.5907 7.20855 56.6241 7.15515 56.6908 7.15515H62.7981C63.6791 7.15515 64.4801 7.23525 65.201 7.39544C65.9218 7.54228 66.5359 7.76254 67.0431 8.05622C67.5638 8.33656 67.9642 8.67696 68.2446 9.07743C68.5249 9.47791 68.6651 9.93178 68.6651 10.439C68.6651 11.1866 68.3313 11.8407 67.6639 12.4014C67.0098 12.9487 65.9752 13.3625 64.5602 13.6429C66.2822 13.9499 67.5704 14.4572 68.4248 15.1647C69.2791 15.8722 69.7063 16.7065 69.7063 17.6676C69.7063 18.2683 69.5394 18.8223 69.2057 19.3296C68.872 19.8235 68.4047 20.244 67.804 20.5911C67.2033 20.9382 66.4758 21.2118 65.6214 21.4121C64.7804 21.599 63.8393 21.6924 62.7981 21.6924H56.6908C56.6241 21.6924 56.5907 21.6457 56.5907 21.5522C56.5907 21.4321 56.6508 21.2652 56.7709 21.0516C56.8911 20.8381 57.0179 20.5844 57.1514 20.2907C57.2982 19.9837 57.4251 19.6366 57.5318 19.2495C57.652 18.849 57.7121 18.4018 57.7121 17.9079V10.9396ZM61.4966 13.3225C62.6713 13.3091 63.539 13.0288 64.0996 12.4815C64.6603 11.9208 64.9406 11.1599 64.9406 10.1988C64.9406 9.43786 64.7738 8.83047 64.44 8.3766C64.1063 7.92273 63.6257 7.6958 62.9983 7.6958C62.5311 7.6958 62.164 7.99615 61.897 8.59686C61.63 9.18423 61.4966 9.96515 61.4966 10.9396V13.3225ZM63.3988 21.1518C64.2932 21.1518 64.9473 20.8714 65.3611 20.3108C65.775 19.7501 65.9819 19.0292 65.9819 18.1482C65.9819 16.9201 65.6014 15.9322 64.8405 15.1847C64.093 14.4238 62.9783 14.03 61.4966 14.0033V17.9079C61.4966 18.8824 61.6634 19.67 61.9971 20.2707C62.3442 20.8581 62.8114 21.1518 63.3988 21.1518Z" fill="#4F312F"/>
<path d="M68.6733 21.7124C68.6066 21.7124 68.5866 21.6791 68.6133 21.6123C68.6533 21.4788 68.8202 21.3053 69.1139 21.0917C69.4075 20.8648 69.7346 20.6044 70.095 20.3108C70.4555 20.0037 70.8092 19.6567 71.1563 19.2695C71.5167 18.8691 71.7837 18.4219 71.9572 17.9279L75.0609 9.07743L74.9608 8.83715C74.854 8.59686 74.7405 8.4033 74.6204 8.25646C74.5003 8.09627 74.3868 7.96945 74.28 7.87601L74.0397 7.6157C73.973 7.54895 73.9396 7.48888 73.9396 7.43549C73.9396 7.35539 73.993 7.28864 74.0998 7.23525C74.2199 7.18185 74.3734 7.15515 74.5603 7.15515H78.5851L84.2318 20.0905C84.3519 20.3575 84.4587 20.5711 84.5522 20.7313C84.659 20.8781 84.7524 20.9982 84.8325 21.0917C84.9126 21.1718 84.9727 21.2319 85.0127 21.2719C85.0528 21.3119 85.0728 21.3653 85.0728 21.4321C85.0728 21.4988 85.0394 21.5589 84.9727 21.6123C84.9059 21.6657 84.7658 21.6924 84.5522 21.6924H80.1269C79.9133 21.6924 79.8066 21.5856 79.8066 21.372C79.8066 21.105 79.8066 20.818 79.8066 20.511C79.8199 20.204 79.7265 19.8168 79.5262 19.3496L78.4249 16.8066H72.9784L72.578 17.9279C72.4044 18.4219 72.3577 18.8691 72.4378 19.2695C72.5179 19.6567 72.638 20.0037 72.7982 20.3108C72.9584 20.6044 73.1053 20.8581 73.2388 21.0717C73.3856 21.2853 73.439 21.4521 73.3989 21.5723C73.3723 21.6657 73.3255 21.7124 73.2588 21.7124H68.6733ZM75.3813 9.85836L73.1787 16.1859H78.1446L75.3813 9.85836Z" fill="#4F312F"/>
<path d="M88.4983 17.9079C88.4983 18.7222 88.8253 19.383 89.4794 19.8903C90.1469 20.3842 91.0279 20.6311 92.1226 20.6311C93.017 20.6311 93.6911 20.4576 94.145 20.1105C94.5988 19.7634 94.8258 19.2896 94.8258 18.6888V10.9396C94.8258 10.4457 94.719 10.0052 94.5054 9.61808C94.2918 9.2176 94.0515 8.87052 93.7845 8.57684C93.5309 8.26981 93.2973 8.01618 93.0837 7.81594C92.8701 7.60235 92.7633 7.42881 92.7633 7.29532C92.7633 7.20188 92.7967 7.15515 92.8634 7.15515H97.4289C97.4556 7.15515 97.4756 7.17518 97.4889 7.21523C97.5156 7.25527 97.529 7.28865 97.529 7.31534C97.529 7.43549 97.4222 7.60235 97.2086 7.81594C96.995 8.02952 96.7547 8.28983 96.4878 8.59686C96.2341 8.89055 95.9938 9.23095 95.7669 9.61808C95.5533 10.0052 95.4465 10.4457 95.4465 10.9396V18.6888C95.4465 19.6099 95.026 20.3441 94.185 20.8914C93.344 21.4388 92.1626 21.7124 90.6408 21.7124C89.7865 21.7124 88.9989 21.6257 88.278 21.4521C87.5572 21.2652 86.9364 21.0049 86.4158 20.6712C85.8952 20.3375 85.488 19.937 85.1944 19.4698C84.9007 19.0025 84.7538 18.4819 84.7538 17.9079V10.9396C84.7538 10.4457 84.6938 10.0052 84.5736 9.61808C84.4668 9.23095 84.34 8.89055 84.1932 8.59686C84.0597 8.28983 83.9329 8.02952 83.8127 7.81594C83.6926 7.60235 83.6325 7.43549 83.6325 7.31534C83.6325 7.20855 83.6659 7.15515 83.7326 7.15515H89.5395C89.5662 7.15515 89.5929 7.17518 89.6196 7.21523C89.6463 7.25527 89.6597 7.29532 89.6597 7.33537C89.6597 7.45551 89.5996 7.62238 89.4794 7.83596C89.3593 8.0362 89.2258 8.28983 89.079 8.59686C88.9321 8.89055 88.7986 9.23095 88.6785 9.61808C88.5583 10.0052 88.4983 10.4457 88.4983 10.9396V17.9079Z" fill="#4F312F"/>
<path d="M101.878 21.6924C101.811 21.6924 101.778 21.639 101.778 21.5322C101.778 21.4121 101.831 21.2519 101.938 21.0516C102.045 20.8381 102.165 20.5844 102.299 20.2907C102.432 19.9837 102.552 19.6366 102.659 19.2495C102.766 18.849 102.819 18.4018 102.819 17.9079V10.9396C102.819 10.4724 102.779 10.0452 102.699 9.65812C102.632 9.271 102.539 8.93727 102.419 8.65694C102.299 8.3766 102.165 8.16302 102.018 8.01618C101.885 7.85599 101.745 7.77589 101.598 7.77589C101.424 7.77589 101.284 7.88936 101.177 8.11629C101.084 8.32988 100.997 8.59686 100.917 8.91724C100.837 9.23763 100.75 9.59138 100.657 9.9785C100.576 10.3656 100.456 10.7194 100.296 11.0398C100.149 11.3601 99.9491 11.6338 99.6955 11.8607C99.4552 12.0743 99.1348 12.1811 98.7343 12.1811C98.2404 12.1811 97.8399 12.0143 97.5329 11.6805C97.2259 11.3334 97.0723 10.8529 97.0723 10.2388C97.0723 9.79829 97.1524 9.39114 97.3126 9.01736C97.4862 8.64359 97.7265 8.31653 98.0335 8.0362C98.3405 7.75587 98.7076 7.54228 99.1348 7.39544C99.5753 7.23525 100.063 7.15515 100.597 7.15515H108.786C109.32 7.15515 109.801 7.23525 110.228 7.39544C110.668 7.54228 111.042 7.75587 111.349 8.0362C111.656 8.31653 111.89 8.64359 112.05 9.01736C112.224 9.39114 112.31 9.79829 112.31 10.2388C112.31 10.8529 112.157 11.3334 111.85 11.6805C111.543 12.0143 111.142 12.1811 110.648 12.1811C110.248 12.1811 109.921 12.0743 109.667 11.8607C109.427 11.6338 109.227 11.3601 109.067 11.0398C108.92 10.7194 108.8 10.3656 108.706 9.9785C108.626 9.59138 108.546 9.23763 108.466 8.91724C108.386 8.59686 108.292 8.32988 108.186 8.11629C108.092 7.88936 107.959 7.77589 107.785 7.77589C107.652 7.77589 107.511 7.85599 107.365 8.01618C107.218 8.16302 107.084 8.3766 106.964 8.65694C106.844 8.93727 106.744 9.271 106.664 9.65812C106.597 10.0452 106.564 10.4724 106.564 10.9396V17.9079C106.564 18.4018 106.624 18.849 106.744 19.2495C106.864 19.6366 106.997 19.9837 107.144 20.2907C107.291 20.5844 107.425 20.8381 107.545 21.0516C107.665 21.2519 107.725 21.4121 107.725 21.5322C107.725 21.639 107.692 21.6924 107.625 21.6924H101.878Z" fill="#4F312F"/>
<path fill-rule="evenodd" clip-rule="evenodd" d="M40.1301 4.17995C39.7785 2.75625 39.8472 0.704629 42.8877 0.00331683C42.9566 -0.0125795 43.0278 0.0302028 43.0454 0.0986879C43.7497 2.82956 42.2825 4.13346 40.2654 4.27792C40.2024 4.28243 40.1452 4.24125 40.1301 4.17995ZM40.7901 3.81536C41.4713 3.67634 42.0173 3.37317 42.3684 2.91998C42.7751 2.39489 42.9741 1.59791 42.7275 0.444475C41.4636 0.787896 40.8647 1.37858 40.5911 1.9815C40.3494 2.51408 40.3347 3.11353 40.4245 3.67852C40.5164 3.48121 40.6406 3.25268 40.7906 3.01167C41.0554 2.58641 41.4088 2.10968 41.8279 1.67984C41.9029 1.60292 42.026 1.60136 42.1029 1.67636C42.1798 1.75135 42.1814 1.8745 42.1064 1.95142C41.7101 2.35787 41.3735 2.8115 41.1209 3.2173C40.9824 3.43965 40.8714 3.64397 40.7901 3.81536Z" fill="#E7A50E"/>
<path fill-rule="evenodd" clip-rule="evenodd" d="M35.6607 2.47758C40.0267 2.31437 40.3801 5.53546 39.9892 7.29676C39.9731 7.36966 39.9086 7.42064 39.8339 7.42181C37.3559 7.46057 35.3773 6.24092 35.5007 2.63709C35.5037 2.55149 35.5751 2.48078 35.6607 2.47758ZM39.698 6.64979C39.5388 6.38513 39.3335 6.06149 39.0863 5.73137C38.6503 5.14911 38.0701 4.5269 37.3534 4.15198C37.2582 4.10219 37.1407 4.13899 37.0909 4.23419C37.0411 4.32938 37.0779 4.44691 37.1731 4.4967C37.8153 4.83264 38.3537 5.40215 38.7749 5.96456C39.0715 6.36059 39.3031 6.74329 39.4705 7.02893C38.4458 6.98942 37.578 6.70154 36.9599 6.11356C36.3049 5.49047 35.8675 4.47008 35.8848 2.86115C37.8203 2.83822 38.7932 3.53791 39.2726 4.36124C39.6808 5.06224 39.7687 5.91524 39.698 6.64979Z" fill="#E7A50E"/>
<path fill-rule="evenodd" clip-rule="evenodd" d="M40.6847 7.85474C40.5724 6.07307 41.5379 3.29741 45.4716 3.58011C45.5579 3.58632 45.6265 3.66108 45.625 3.7476C45.5637 7.46206 43.288 8.36546 40.8225 8.00266C40.7473 7.9916 40.6895 7.93059 40.6847 7.85474ZM41.4757 7.67888C42.4168 7.73083 43.2584 7.55452 43.8962 7.08971C44.621 6.56153 45.1609 5.60238 45.2298 3.95577C43.4959 3.88024 42.4634 4.45258 41.8623 5.18923C41.2907 5.88985 41.0698 6.78759 41.0652 7.55606C41.5783 6.96409 42.411 6.14214 43.6984 5.27125C43.7873 5.21106 43.9083 5.2344 43.9685 5.32338C44.0287 5.41236 44.0053 5.53329 43.9163 5.59348C42.7541 6.37968 41.976 7.12184 41.4757 7.67888Z" fill="#E7A50E"/>
</g>
<defs>
<filter id="filter0_d_477_853" x="0" y="0" width="112.57" height="26.4971" filterUnits="userSpaceOnUse" color-interpolation-filters="sRGB">
<feFlood flood-opacity="0" result="BackgroundImageFix"/>
<feColorMatrix in="SourceAlpha" type="matrix" values="0 0 0 0 0 0 0 0 0 0 0 0 0 0 0 0 0 0 127 0" result="hardAlpha"/>
<feOffset dx="0.259354" dy="0.259354"/>
<feComposite in2="hardAlpha" operator="out"/>
<feColorMatrix type="matrix" values="0 0 0 0 0.780392 0 0 0 0 0.611765 0 0 0 0 0.113725 0 0 0 0.2 0"/>
<feBlend mode="normal" in2="BackgroundImageFix" result="effect1_dropShadow_477_853"/>
<feBlend mode="normal" in="SourceGraphic" in2="effect1_dropShadow_477_853" result="shape"/>
</filter>
</defs>
</svg>
