<svg width="32" height="32" viewBox="0 0 32 32" fill="none" xmlns="http://www.w3.org/2000/svg">
<circle cx="16" cy="16" r="16" fill="white"/>
<path d="M15.25 8.49994C18.976 8.49994 22 11.5239 22 15.2499C22 18.9759 18.976 21.9999 15.25 21.9999C11.524 21.9999 8.5 18.9759 8.5 15.2499C8.5 11.5239 11.524 8.49994 15.25 8.49994ZM15.25 20.4999C18.1506 20.4999 20.5 18.1506 20.5 15.2499C20.5 12.3493 18.1506 9.99994 15.25 9.99994C12.3494 9.99994 10 12.3493 10 15.2499C10 18.1506 12.3494 20.4999 15.25 20.4999ZM21.614 20.5533L23.7353 22.6746L22.6746 23.7352L20.5533 21.6139L21.614 20.5533Z" fill="#4F312F"/>
</svg>
